<svg width="253" height="327" viewBox="0 0 253 327" fill="none" xmlns="http://www.w3.org/2000/svg" role="img" aria-label="Remi logo">
<title>Remi</title>
<path fill-rule="evenodd" clip-rule="evenodd" d="M4.4253 3.36499C1.9593 5.83099 0.870274 7.99099 0.352274 11.447C-0.036726 14.041 -0.115721 47.088 0.176279 84.886C0.732279 156.681 1.39229 170.01 5.91029 200.61C7.04729 208.31 9.51828 220.917 11.4003 228.625C18.1313 256.191 17.7023 260.117 18.0603 167.61C18.2363 121.96 18.3803 71.785 18.3803 56.11V27.61L23.6303 27.308L28.8803 27.005L28.8663 130.808C28.8533 224.019 28.3963 250.185 26.3193 276.61C25.7013 284.474 25.7473 284.695 29.0353 289.61C34.6913 298.064 42.6923 300.043 47.0083 294.056C48.5633 291.897 48.9033 287.204 49.9013 254.11C50.5223 233.485 51.2833 176.199 51.5913 126.807L52.1503 37.005L54.3023 33.807C58.3203 27.839 59.4653 27.639 91.4933 27.318C123.88 26.993 134.574 28.003 148.9 32.738C173.517 40.874 189.029 60.688 188.966 83.918C188.953 88.699 188.263 94.88 187.433 97.655C182.296 114.83 163.288 126.889 138.38 128.773C133.98 129.106 129.876 129.655 129.26 129.994C128.52 130.4 130.081 134.863 133.847 143.11L139.555 155.61L147.118 155.379C164.965 154.835 185.886 143.795 197.069 129.021C218.223 101.075 216.613 57.975 193.381 30.238C182.202 16.891 166.273 8.328 142.38 2.819C133.889 0.861 129.83 0.722979 70.5853 0.371979L7.79029 0L4.4253 3.36499ZM60.8893 91.761C60.8943 92.778 61.9853 98.402 63.3143 104.258C72.6513 145.419 101.48 203.205 137.823 253.61C155.693 278.394 187.062 315.353 197.021 323.357L200.661 326.283L226.666 325.446L252.671 324.61L240.086 314.61C224.812 302.474 195.731 274.314 183.152 259.478C152.449 223.269 123.771 179.813 102.358 137.049C94.4213 121.196 85.8133 110.968 67.1303 95.19C62.2983 91.11 60.8823 90.332 60.8893 91.761Z" fill="#00E5A0" stroke="#00E5A0" stroke-width="3" stroke-linejoin="round"/>
</svg>
